<svg xmlns="http://www.w3.org/2000/svg" viewBox="0 0 760 620" role="img" aria-labelledby="title desc">
  <title id="title">Tiga cup Mamamatcha</title>
  <desc id="desc">Ilustrasi produk Mamamatcha dengan tiga minuman matcha creamy.</desc>
  <defs>
    <linearGradient id="bg" x1="0" y1="0" x2="1" y2="1">
      <stop offset="0" stop-color="#f8f3df"/>
      <stop offset="1" stop-color="#dcecb8"/>
    </linearGradient>
    <linearGradient id="matcha" x1="0" y1="0" x2="0" y2="1">
      <stop offset="0" stop-color="#cfe89f"/>
      <stop offset="0.55" stop-color="#78a85b"/>
      <stop offset="1" stop-color="#31572c"/>
    </linearGradient>
    <linearGradient id="milk" x1="0" y1="0" x2="0" y2="1">
      <stop offset="0" stop-color="#fffdf5"/>
      <stop offset="1" stop-color="#f2e8cf"/>
    </linearGradient>
    <filter id="shadow" x="-20%" y="-20%" width="140%" height="150%">
      <feDropShadow dx="0" dy="24" stdDeviation="18" flood-color="#31572c" flood-opacity="0.22"/>
    </filter>
  </defs>
  <rect width="760" height="620" rx="36" fill="url(#bg)"/>
  <circle cx="612" cy="106" r="54" fill="#f7b267" opacity="0.55"/>
  <circle cx="126" cy="504" r="84" fill="#a7c957" opacity="0.35"/>
  <g filter="url(#shadow)">
    <g transform="translate(260 95)">
      <path d="M30 88h210l-30 350c-5 48-24 72-75 72H95c-51 0-70-24-75-72L-10 88z" fill="#ffffff"/>
      <path d="M13 190h244l-21 248c-4 39-20 56-61 56H95c-41 0-57-17-61-56z" fill="url(#matcha)"/>
      <path d="M24 112h222v96H24z" fill="url(#milk)"/>
      <ellipse cx="135" cy="88" rx="130" ry="42" fill="#f9f6ea"/>
      <ellipse cx="135" cy="88" rx="96" ry="24" fill="#9fc46c"/>
      <rect x="53" y="262" width="164" height="92" rx="12" fill="#fffdf5" opacity="0.95"/>
      <text x="135" y="311" text-anchor="middle" font-family="Arial, sans-serif" font-size="28" font-weight="700" fill="#31572c">Mamamatcha</text>
    </g>
    <g transform="translate(92 188) scale(.82)">
      <path d="M30 88h210l-30 350c-5 48-24 72-75 72H95c-51 0-70-24-75-72L-10 88z" fill="#ffffff"/>
      <path d="M13 212h244l-19 226c-4 39-20 56-61 56H95c-41 0-57-17-61-56z" fill="#6a994e"/>
      <path d="M24 112h222v124H24z" fill="#f2e8cf"/>
      <ellipse cx="135" cy="88" rx="130" ry="42" fill="#f9f6ea"/>
      <ellipse cx="135" cy="88" rx="96" ry="24" fill="#7aaa55"/>
      <rect x="58" y="282" width="154" height="84" rx="12" fill="#fffdf5" opacity="0.94"/>
      <text x="135" y="329" text-anchor="middle" font-family="Arial, sans-serif" font-size="25" font-weight="700" fill="#31572c">Original</text>
    </g>
    <g transform="translate(528 202) scale(.74)">
      <path d="M30 88h210l-30 350c-5 48-24 72-75 72H95c-51 0-70-24-75-72L-10 88z" fill="#ffffff"/>
      <path d="M13 205h244l-20 233c-4 39-20 56-61 56H95c-41 0-57-17-61-56z" fill="#6a994e"/>
      <path d="M24 112h222v102H24z" fill="#704214"/>
      <ellipse cx="135" cy="88" rx="130" ry="42" fill="#f9f6ea"/>
      <ellipse cx="135" cy="88" rx="96" ry="24" fill="#d6a65d"/>
      <rect x="58" y="282" width="154" height="84" rx="12" fill="#fffdf5" opacity="0.94"/>
      <text x="135" y="329" text-anchor="middle" font-family="Arial, sans-serif" font-size="24" font-weight="700" fill="#31572c">Brown</text>
    </g>
  </g>
</svg>
