<svg xmlns="http://www.w3.org/2000/svg" viewBox="0 0 320 320">
  <rect width="320" height="320" rx="24" fill="#eef6db"/>
  <ellipse cx="160" cy="282" rx="86" ry="20" fill="#31572c" opacity=".16"/>
  <path d="M88 80h144l-20 164c-5 39-18 52-54 52s-49-13-54-52L88 80z" fill="#fffdf5"/>
  <path d="M96 148h128l-13 100c-4 31-15 41-51 41s-47-10-51-41L96 148z" fill="#6a994e"/>
  <path d="M99 100h122v56H99z" fill="#f2e8cf"/>
  <ellipse cx="160" cy="80" rx="82" ry="26" fill="#fffaf0"/>
  <ellipse cx="160" cy="80" rx="58" ry="15" fill="#a7c957"/>
  <rect x="115" y="188" width="90" height="50" rx="8" fill="#fffdf5"/>
  <text x="160" y="218" text-anchor="middle" font-family="Arial" font-size="18" font-weight="700" fill="#31572c">Original</text>
</svg>
