<svg xmlns="http://www.w3.org/2000/svg" viewBox="0 0 320 320">
  <rect width="320" height="320" rx="24" fill="#fff4da"/>
  <ellipse cx="160" cy="282" rx="86" ry="20" fill="#31572c" opacity=".14"/>
  <path d="M88 80h144l-20 164c-5 39-18 52-54 52s-49-13-54-52L88 80z" fill="#fffdf5"/>
  <path d="M96 158h128l-13 90c-4 31-15 41-51 41s-47-10-51-41L96 158z" fill="#6a994e"/>
  <path d="M99 98h122v68H99z" fill="#fff2c5"/>
  <ellipse cx="160" cy="80" rx="82" ry="26" fill="#fffaf0"/>
  <ellipse cx="160" cy="80" rx="62" ry="17" fill="#fff0b5"/>
  <circle cx="128" cy="142" r="9" fill="#f7b267" opacity=".65"/>
  <circle cx="188" cy="126" r="7" fill="#f7b267" opacity=".55"/>
  <rect x="107" y="197" width="106" height="50" rx="8" fill="#fffdf5"/>
  <text x="160" y="227" text-anchor="middle" font-family="Arial" font-size="17" font-weight="700" fill="#31572c">Cheese</text>
</svg>
