<svg xmlns="http://www.w3.org/2000/svg" viewBox="0 0 320 320">
  <rect width="320" height="320" rx="24" fill="#eee6d8"/>
  <ellipse cx="160" cy="282" rx="86" ry="20" fill="#3b2416" opacity=".16"/>
  <path d="M88 80h144l-20 164c-5 39-18 52-54 52s-49-13-54-52L88 80z" fill="#fffdf5"/>
  <path d="M96 170h128l-13 78c-4 31-15 41-51 41s-47-10-51-41L96 170z" fill="#6a994e"/>
  <path d="M99 102h122v80H99z" fill="#4b2e1f"/>
  <ellipse cx="160" cy="80" rx="82" ry="26" fill="#fffaf0"/>
  <ellipse cx="160" cy="80" rx="58" ry="15" fill="#5c3823"/>
  <path d="M111 157h98" stroke="#a7c957" stroke-width="10" stroke-linecap="round" opacity=".8"/>
  <rect x="113" y="199" width="94" height="50" rx="8" fill="#fffdf5"/>
  <text x="160" y="229" text-anchor="middle" font-family="Arial" font-size="18" font-weight="700" fill="#31572c">Choco</text>
</svg>
